<svg xmlns="http://www.w3.org/2000/svg" width="100" height="100" viewBox="0 0 100 100" role="img" aria-label="Nilyan Herrera"><rect width="100" height="100" rx="22" fill="#15302C"/><g transform="translate(50 50) scale(1.12) translate(-50 -50)"><path d="M49.35 28.85L49.35 30.04Q47.33 30.10 46.30 30.63Q45.26 31.17 44.90 32.35Q44.55 33.54 44.55 35.73L44.55 71.15Q44.19 71.15 43.86 71.15Q43.54 71.15 43.18 71.15L18.27 32.65L18.27 63.97Q18.27 66.11 18.65 67.32Q19.04 68.54 20.19 69.04Q21.35 69.55 23.67 69.67L23.67 70.85Q22.60 70.73 20.88 70.70Q19.16 70.67 17.61 70.67Q16.13 70.67 14.62 70.70Q13.11 70.73 12.10 70.85L12.10 69.67Q14.11 69.55 15.15 69.04Q16.19 68.54 16.55 67.32Q16.90 66.11 16.90 63.97L16.90 35.14Q16.90 32.94 16.55 31.91Q16.19 30.87 15.15 30.48Q14.11 30.10 12.10 30.04L12.10 28.85Q13.11 28.91 14.62 28.97Q16.13 29.03 17.61 29.03Q18.92 29.03 20.11 28.97Q21.29 28.91 22.24 28.85L43.18 61.12L43.18 35.73Q43.18 33.54 42.80 32.35Q42.41 31.17 41.25 30.63Q40.10 30.10 37.78 30.04L37.78 28.85Q38.85 28.91 40.60 28.97Q42.35 29.03 43.83 29.03Q45.38 29.03 46.89 28.97Q48.40 28.91 49.35 28.85M72.78 70.85L72.78 69.67Q74.79 69.55 75.83 69.19Q76.87 68.83 77.22 67.77Q77.58 66.70 77.58 64.56L77.58 35.14Q77.58 32.94 77.22 31.91Q76.87 30.87 75.83 30.48Q74.79 30.10 72.78 30.04L72.78 28.85Q74.14 28.91 76.22 28.97Q78.29 29.03 80.31 29.03Q82.62 29.03 84.64 28.97Q86.66 28.91 87.90 28.85L87.90 30.04Q85.89 30.10 84.85 30.48Q83.81 30.87 83.45 31.91Q83.10 32.94 83.10 35.14L83.10 64.56Q83.10 66.70 83.45 67.77Q83.81 68.83 84.85 69.19Q85.89 69.55 87.90 69.67L87.90 70.85Q86.66 70.73 84.64 70.70Q82.62 70.67 80.31 70.67Q78.29 70.67 76.22 70.70Q74.14 70.73 72.78 70.85M47.98 70.85L47.98 69.67Q50 69.55 51.03 69.19Q52.07 68.83 52.43 67.77Q52.78 66.70 52.78 64.56L52.78 35.14Q52.78 32.94 52.43 31.91Q52.07 30.87 51.03 30.48Q50 30.10 47.98 30.04L47.98 28.85Q49.22 28.91 51.24 28.97Q53.26 29.03 55.57 29.03Q57.65 29.03 59.69 28.97Q61.74 28.91 63.11 28.85L63.11 30.04Q61.09 30.10 60.05 30.48Q59.01 30.87 58.66 31.91Q58.30 32.94 58.30 35.14L58.30 64.56Q58.30 66.70 58.66 67.77Q59.01 68.83 60.05 69.19Q61.09 69.55 63.11 69.67L63.11 70.85Q61.74 70.73 59.69 70.70Q57.65 70.67 55.57 70.67Q53.26 70.67 51.24 70.70Q49.22 70.73 47.98 70.85M79.66 50.33L56.22 50.33L56.22 49.14L79.66 49.14" fill="#C9A06A"/></g></svg>
